<?xml version="1.0" encoding="utf-8"?>
<!-- Generator: Adobe Illustrator 27.2.0, SVG Export Plug-In . SVG Version: 6.00 Build 0)  -->
<svg version="1.1" id="Layer_1" xmlns="http://www.w3.org/2000/svg" xmlns:xlink="http://www.w3.org/1999/xlink" x="0px" y="0px"
	 viewBox="0 0 293.1 166.4" style="enable-background:new 0 0 293.1 166.4;" xml:space="preserve">
<style type="text/css">
	.st0{fill:#FFFFFF;}
</style>
<g>
	<path class="st0" d="M139.3,81.3v70.8H153v4H84.4v-4h13.7V12.2H84.4v-4h63.8c44.2,0,65.3,4.7,65.3,35.5c0,25.8-13.5,33.4-35.9,35.2
		v0.6c22.8,3,30.6,11.8,30.6,36.3v11.2c0,13.7,0.6,18.6,6.6,18.6c3.8,0,6.9-1.7,9.7-18.1l3.6,0.5c-3.2,24.1-9.1,30.2-28.8,30.2
		c-26.6,0-34.4-8.8-34.4-38.7v-15.4c0-15-3-22.8-14.3-22.8C150.5,81.3,139.3,81.3,139.3,81.3z M139.3,77.3h6.8
		c15.6,0,23.6-8.7,23.6-31.5v-6.1c0-23.6-8.7-27.5-23.4-27.5h-6.9V77.3L139.3,77.3z"/>
	<g>
		<path class="st0" d="M32.7,61.4c10.7,0,18.3,5.9,18.3,21.8s-7.8,21.9-18.3,21.9C20,105,14.4,95.8,14.4,83.2
			C14.4,67.3,22.1,61.4,32.7,61.4z M26.9,86.4c0,12.8,0,17.5,5.9,17.5c5.8,0,5.9-4.6,5.9-16.9v-5.3c0-14.3,0-18.8-5.9-18.8
			c-5.9,0-5.9,5.1-5.9,18.3C26.9,80.9,26.9,86.4,26.9,86.4z"/>
		<path class="st0" d="M56.8,82.5l-1-0.5V62.6l1-0.7c5,0.7,18.3,2.1,20.1,2.1c1.4,0,2-0.7,2.4-2.5l0.9,0.1c-1,9.9-2.1,12-4.4,12
			c-1.4,0-3-0.5-5-1l-13.3-3.4l-0.3,11.8c2.7-1.4,5.9-2.3,9.6-2.3c12.2,0,15.6,6.4,15.6,12.7c0,8.7-6.6,14-17.4,14
			c-4.9,0-12.5-1.9-12.5-9.4c0-3,1.8-5.7,5.5-5.7c3.1,0,5.2,1.6,5.2,4.7c0,1.2-0.3,2.3-0.5,3.1h-2c-0.3,0.6-0.4,1.3-0.4,2
			c0,1.6,0.8,4,4.5,4c5.1,0,5.3-4.9,5.3-13.3c0-7.6-0.6-10.7-5.4-10.7C62,79.9,59.3,80.9,56.8,82.5z"/>
		<path class="st0" d="M234.7,105c-8.7,0-13.6-3.6-13.6-8.7c0-3,1.9-6,5.6-6c3.1,0,5.1,1.9,5.1,4.7c0,1.2-0.2,2-0.5,2.8h-1.8
			c-0.3,0.6-0.5,1.7-0.5,2.2c0,1.9,1.5,3.8,5.1,3.8c5.3,0,7.7-4.9,7.8-19.8c-1.8,2.9-4.7,4.9-9.6,4.9c-7.1,0-12.5-4.8-12.5-13.2
			c0-10.3,7.9-14.4,17.1-14.4c10.5,0,16.9,5.7,16.9,19.3C254,96.5,246.7,105,234.7,105z M241.9,75.4c0-8.2-0.1-12.9-4.7-12.9
			c-5,0-5.3,5-5.3,12.4c0,8.5,0.2,11.9,4.1,11.9c2.8,0,4.7-2.5,5.5-5.5C241.9,79.7,241.9,78.1,241.9,75.4z"/>
		<path class="st0" d="M255.4,65l-0.1-1.2l13.7-1.9h5v41.9h4.7v1.2h-22.9v-1.2h6.4V64.2L255.4,65z"/>
	</g>
</g>
</svg>
