<?xml version="1.0" encoding="utf-8"?>
<!-- Generator: Adobe Illustrator 27.2.0, SVG Export Plug-In . SVG Version: 6.00 Build 0)  -->
<svg version="1.1" id="Layer_1" xmlns="http://www.w3.org/2000/svg" xmlns:xlink="http://www.w3.org/1999/xlink" x="0px" y="0px"
	 viewBox="0 0 463.5 66.1" style="enable-background:new 0 0 463.5 66.1;" xml:space="preserve">
<style type="text/css">
	.st0{fill:#FFFFFF;}
</style>
<g>
	<path class="st0" d="M46.8,3L19.7,63h3.1c10.7,0,19.8-7,23.5-20.2H48l-1.1,22.3H0v-1.7L27.4,3h-3.8C12.6,3,8.7,6.8,1.7,21.3H0.1
		L1.5,1h45.3L46.8,3L46.8,3z"/>
	<path class="st0" d="M98.9,1l0.9,18.1h-1.7C93.2,7.1,88.9,3,77.8,3h-3.2v28.3h3.1c5.9,0,9.8-5,11.4-12h1.4v27.1h-1.6
		c-2.2-9.2-5.7-12.7-12.1-12.7h-2.2v29.4H78c11.6,0,19.7-8,22.4-18h1.8l-0.7,20H51.3v-2h5.4V3h-5.4V1L98.9,1L98.9,1z"/>
	<path class="st0" d="M129.4,32.7v30.7h5.9v1.7h-29.8v-1.7h5.9V2.8h-5.9V1h27.7c19.1,0,28.3,2,28.3,15.4c0,11.2-5.9,14.5-15.6,15.3
		V32c9.9,1.3,13.3,5.1,13.3,15.8v4.9c0,6,0.3,8.1,2.8,8.1c1.6,0,3-0.7,4.2-7.9l1.6,0.2C166.5,63.4,164,66,155.4,66
		c-11.5,0-14.9-3.8-14.9-16.8v-6.7c0-6.5-1.3-9.9-6.2-9.9L129.4,32.7L129.4,32.7L129.4,32.7z M129.4,31h2.9
		c6.8,0,10.3-3.8,10.3-13.6v-2.7c0-10.3-3.8-11.9-10.2-11.9h-3C129.4,2.8,129.4,31,129.4,31z"/>
	<path class="st0" d="M200.8,0c19.7,0,29.7,12.1,29.7,32.9c0,20.4-9.6,33.2-30.8,33.2c-20.4,0-30.2-11.8-30.2-32
		C169.5,13,180.4,0,200.8,0z M211.6,30c0-18.8-0.6-28.1-11.5-28.1c-11.1,0-11.8,9.7-11.8,28.5V37c0,17.2,1.1,27.1,11.8,27.1
		c10.3,0,11.5-8.9,11.5-27.3L211.6,30L211.6,30z"/>
	<path class="st0" d="M240.2,32l-1.6-0.7V2l1.5-1.1C247.7,2,267.8,4,270.4,4c2.1,0,2.9-1.1,3.7-3.8l1.4,0.2c-1.5,14.9-3.1,18-6.7,18
		c-2,0-4.5-0.7-7.6-1.6l-20-5.2l-0.5,17.8c4.1-2.2,9-3.6,14.4-3.6c18.3,0,23.5,9.6,23.5,19.1c0,13.1-10,21.1-26.3,21.1
		c-7.3,0-19-2.8-19-14.1c0-4.5,2.7-8.5,8.3-8.5c4.6,0,7.9,2.5,7.9,7.1c0,1.7-0.4,3.5-0.8,4.7h-3c-0.4,1-0.6,1.9-0.6,3
		c0,2.5,1.3,6,6.9,6c7.8,0,8.1-7.4,8.1-20c0-11.5-0.9-16.2-8.2-16.2C248.1,28,244,29.6,240.2,32z"/>
	<path class="st0" d="M303.4,66.1c-13,0-20.5-5.5-20.5-13.2c0-4.5,2.8-9.1,8.4-9.1c4.6,0,7.8,2.8,7.8,7.1c0,1.7-0.3,2.9-0.7,4.2
		h-2.8c-0.5,1-0.6,2.6-0.6,3.3c0,2.8,2.3,5.8,7.8,5.8c8,0,11.6-7.3,11.8-30c-2.8,4.3-7,7.4-14.5,7.4c-10.7,0-18.9-7.2-18.9-19.9
		c0-15.6,12-21.8,25.9-21.8c15.8,0,25.5,8.6,25.5,29.1C332.6,53,321.5,66.1,303.4,66.1z M314.4,21.4c0-12.4-0.1-19.4-7.1-19.4
		c-7.7,0-8.1,7.6-8.1,18.8c0,12.8,0.3,18,6.3,18c4.2,0,7-3.8,8.2-8.3C314.4,27.7,314.4,25.3,314.4,21.4z"/>
	<path class="st0" d="M334.8,4.7l-0.2-1.8L355.3,0h7.4v63.4h7.1v1.7h-34.6v-1.7h9.6v-60L334.8,4.7z"/>
	<path class="st0" d="M374.5,36.9h23.1v2.8h-23.1V36.9z"/>
	<path class="st0" d="M425,32.7v30.7h6v1.7h-29.8v-1.7h6V2.8h-6V1h27.7c19.1,0,28.3,2,28.3,15.4c0,11.2-5.9,14.5-15.6,15.3V32
		c9.9,1.3,13.3,5.1,13.3,15.8v4.9c0,6,0.3,8.1,2.8,8.1c1.6,0,3-0.7,4.2-7.9l1.6,0.2C462.1,63.4,459.5,66,451,66
		c-11.5,0-14.9-3.8-14.9-16.8v-6.7c0-6.5-1.3-9.9-6.2-9.9L425,32.7L425,32.7z M425,31h2.9c6.8,0,10.3-3.8,10.3-13.6v-2.7
		c0-10.3-3.8-11.9-10.2-11.9h-3V31z"/>
</g>
</svg>
